<svg width="16" height="16" viewBox="0 0 16 16" fill="none" xmlns="https://www.w3.org/2000/svg">
<path d="M15.7923 7.85272L8.14829 0.208207C8.14829 0.208207 8.14728 0.208207 8.14728 0.207704L7.93882 0L7.73087 0.207452L0.0861027 7.85272C-0.0287009 7.96702 -0.0287009 8.15357 0.0861027 8.26838C0.199899 8.38268 0.386959 8.38268 0.501762 8.26838L7.64476 1.12588V15.7059C7.64476 15.8686 7.77744 16 7.93882 16C8.10096 16 8.23288 15.8686 8.23288 15.7059V1.12613L15.3759 8.26863C15.4333 8.32654 15.5083 8.35473 15.5836 8.35473C15.6589 8.35473 15.7341 8.32603 15.792 8.26863C15.9066 8.15433 15.9066 7.96803 15.7923 7.85272Z" fill="black"/>
</svg>
