<svg width="40" height="41" viewBox="0 0 40 41" fill="none" xmlns="https://www.w3.org/2000/svg">
<rect y="0.879883" width="40" height="40" rx="20" fill="white"/>
<rect x="5.6665" y="6.54663" width="28.6667" height="28.6667" rx="14.3333" stroke="#00BBD5" stroke-width="3"/>
<path d="M19.082 24.7112C19.0846 24.7086 19.0885 24.7034 19.0938 24.6956C19.0938 24.693 19.0951 24.689 19.0977 24.6838C19.0924 24.6969 19.0859 24.7073 19.0781 24.7151L19.082 24.7112ZM24.2891 24.4885C24.3151 24.5875 24.3073 24.6552 24.2656 24.6917C24.2292 24.7229 24.1615 24.7216 24.0625 24.6877C23.6901 24.5601 23.2057 24.4794 22.6094 24.4456C22.1875 24.4195 21.6745 24.4182 21.0703 24.4417C20.8125 24.4521 20.4401 24.4755 19.9531 24.512C19.4661 24.5484 19.1862 24.5693 19.1133 24.5745L19.1211 24.594L19.1172 24.5901C19.1146 24.5823 19.112 24.5771 19.1094 24.5745C19.1172 24.6109 19.1133 24.6474 19.0977 24.6838C19.1003 24.6786 19.1016 24.6708 19.1016 24.6604C19.1042 24.6526 19.1055 24.6461 19.1055 24.6409C19.1003 24.6721 19.0964 24.6903 19.0938 24.6956C19.0911 24.6982 19.0872 24.7034 19.082 24.7112C19.0742 24.7216 19.0599 24.7307 19.0391 24.7385C18.9896 24.7568 18.9193 24.7333 18.8281 24.6682C18.776 24.6292 18.7448 24.6044 18.7344 24.594C18.375 24.6096 18.1055 24.6174 17.9258 24.6174C17.8424 24.6174 17.763 24.5862 17.6875 24.5237C17.6146 24.4612 17.5547 24.3883 17.5078 24.3049C17.4974 24.2867 17.487 24.2607 17.4766 24.2268C17.4661 24.193 17.4583 24.1578 17.4531 24.1213C17.4479 24.0849 17.4531 24.0549 17.4688 24.0315C17.4844 24.0081 17.5117 23.9989 17.5508 24.0042C17.8164 23.9599 18.0938 23.9234 18.3828 23.8948C18.3802 23.8896 18.3789 23.8805 18.3789 23.8674C18.3789 23.857 18.3776 23.8492 18.375 23.844C18.3411 23.6174 18.3333 23.3323 18.3516 22.9885C18.3802 22.4208 18.4805 21.6721 18.6523 20.7424C18.8086 19.9143 18.9922 19.094 19.2031 18.2815C19.2161 18.2346 19.2357 18.1643 19.2617 18.0706C19.2878 17.9742 19.3073 17.9026 19.3203 17.8557C18.9297 17.9026 18.5378 17.9221 18.1445 17.9143C17.957 17.9117 17.6445 17.8922 17.207 17.8557C16.7721 17.8167 16.4375 17.7997 16.2031 17.8049C15.8464 17.8127 15.5339 17.8583 15.2656 17.9417C15.1146 17.9885 14.9974 18.0471 14.9141 18.1174C14.8932 18.1357 14.8659 18.1656 14.832 18.2073C14.7982 18.2489 14.7656 18.2789 14.7344 18.2971C14.7031 18.3153 14.6641 18.3206 14.6172 18.3127C14.5078 18.2971 14.4089 18.2411 14.3203 18.1448C14.2344 18.0458 14.1758 17.9364 14.1445 17.8167C14.1081 17.676 14.1562 17.5458 14.2891 17.426C14.4479 17.2854 14.7135 17.1799 15.0859 17.1096C15.1745 17.094 15.263 17.081 15.3516 17.0706C15.4401 17.0601 15.5378 17.0549 15.6445 17.0549C15.7539 17.0523 15.8411 17.051 15.9062 17.051C15.974 17.0484 16.0729 17.0523 16.2031 17.0627C16.3359 17.0706 16.4232 17.0758 16.4648 17.0784C16.5065 17.081 16.6042 17.0888 16.7578 17.1018C16.9141 17.1148 17.0039 17.1226 17.0273 17.1252C17.7096 17.1825 18.3607 17.1682 18.9805 17.0823C19.1784 17.0562 19.3776 17.0211 19.5781 16.9768C19.6432 16.7685 19.724 16.5289 19.8203 16.2581C19.9141 15.9976 20.0026 15.788 20.0859 15.6292C20.1146 15.5719 20.138 15.5276 20.1562 15.4963C20.1745 15.4651 20.2018 15.4299 20.2383 15.3909C20.2773 15.3518 20.319 15.3232 20.3633 15.3049C20.3685 15.3023 20.375 15.301 20.3828 15.301C20.3958 15.288 20.4128 15.2802 20.4336 15.2776C20.5742 15.262 20.7161 15.2854 20.8594 15.3479C21.0026 15.4078 21.1263 15.4924 21.2305 15.6018C21.3372 15.7086 21.4297 15.8323 21.5078 15.9729C21.5885 16.1135 21.6354 16.2581 21.6484 16.4065C21.6641 16.5549 21.651 16.6982 21.6094 16.8362C21.5703 16.9482 21.5091 17.0497 21.4258 17.1409C21.3451 17.232 21.2604 17.3062 21.1719 17.3635C21.0833 17.4182 20.9727 17.4703 20.8398 17.5198C20.707 17.5693 20.5938 17.607 20.5 17.6331C20.4089 17.6565 20.2956 17.6825 20.1602 17.7112C19.8294 18.7893 19.543 19.9833 19.3008 21.2932C19.2253 21.6864 19.1641 22.0549 19.1172 22.3987C19.1146 22.4299 19.1094 22.4768 19.1016 22.5393C19.0938 22.5992 19.0872 22.6448 19.082 22.676C19.082 22.689 19.0794 22.7086 19.0742 22.7346C19.0716 22.7607 19.069 22.7802 19.0664 22.7932C19.0664 22.7958 19.0651 22.8088 19.0625 22.8323C19.0599 22.8557 19.0586 22.87 19.0586 22.8752C19.0378 23.0914 19.0247 23.2502 19.0195 23.3518C19.0065 23.5419 19.0013 23.7047 19.0039 23.8401C19.0143 23.8401 19.0299 23.8388 19.0508 23.8362C19.0742 23.8336 19.0911 23.8323 19.1016 23.8323C19.75 23.775 20.2812 23.7372 20.6953 23.719C21.0677 23.706 21.4219 23.6982 21.7578 23.6956C22.0938 23.693 22.4479 23.7164 22.8203 23.7659C23.1953 23.8153 23.5417 23.8922 23.8594 23.9963C23.9505 24.025 24.0378 24.0901 24.1211 24.1917C24.207 24.2932 24.263 24.3922 24.2891 24.4885ZM20.6484 16.6057C20.8724 16.4495 20.9844 16.2685 20.9844 16.0627C20.9844 16.0002 20.9779 15.9482 20.9648 15.9065L20.9531 15.8987L20.9492 15.8948C20.944 15.8922 20.9362 15.8896 20.9258 15.887C20.9154 15.8818 20.9076 15.8778 20.9023 15.8752C20.9023 15.9247 20.8906 15.9547 20.8672 15.9651C20.8542 15.9703 20.8372 15.9833 20.8164 16.0042C20.8138 16.0094 20.8073 16.0185 20.7969 16.0315C20.7839 16.0523 20.7773 16.0614 20.7773 16.0588C20.7305 16.1422 20.6966 16.206 20.6758 16.2502C20.6263 16.3544 20.5664 16.5028 20.4961 16.6956C20.5742 16.6539 20.625 16.6239 20.6484 16.6057ZM20.9688 15.9104L20.9727 15.9143V15.9182V15.9143L20.9688 15.9104ZM20.9727 15.9143V15.9104L20.9688 15.9065L20.9648 15.9026L20.9688 15.9104C20.9714 15.9104 20.9727 15.9104 20.9727 15.9104V15.9143ZM20.9609 15.9065V15.9026C20.9583 15.9026 20.957 15.9026 20.957 15.9026C20.957 15.9 20.9557 15.8987 20.9531 15.8987L20.9609 15.9065ZM20.9727 15.9065L20.957 15.8909C20.957 15.8935 20.9583 15.8948 20.9609 15.8948L20.9648 15.9026H20.9688L20.9727 15.9065ZM20.957 15.8909C20.9518 15.8857 20.9479 15.8844 20.9453 15.887C20.9427 15.8896 20.9453 15.8935 20.9531 15.8987C20.9557 15.8987 20.9583 15.9 20.9609 15.9026L20.957 15.8987C20.957 15.8961 20.957 15.8935 20.957 15.8909Z" fill="black"/>
</svg>
